<?xml version="1.0" encoding="UTF-8"?>
<!DOCTYPE svg PUBLIC "-//W3C//DTD SVG 1.1//EN" "http://www.w3.org/Graphics/SVG/1.1/DTD/svg11.dtd">
<svg version="1.1" xmlns="http://www.w3.org/2000/svg" xmlns:xlink="http://www.w3.org/1999/xlink" x="0" y="0" width="150" height="150" viewBox="0, 0, 150, 150">
  <g id="Background">
    <rect x="0" y="0" width="150" height="150" fill="#000000" fill-opacity="0"/>
  </g>
  <g id="swords">
    <path d="M6.072,59.125 C6.072,59.125 11.956,66.666 13.858,68.403 C16.842,71.128 18.465,70.284 18.465,70.284 L22.941,76.124 L24.433,74.589 C24.433,74.589 25.437,77.799 27.418,80.666 C29.4,83.532 31.311,84.753 31.311,84.753 L33.128,84.559 L36.632,89.035 L37.678,87.854 C37.678,87.854 39.878,90.987 42.175,92.589 C44.473,94.19 44.182,93.808 46.753,95.718 C49.325,97.628 50.841,99.546 50.841,99.546 L53.241,99.611 L57.394,102.79 C57.394,102.79 60.969,103.219 61.017,103.184 C61.065,103.15 64.661,107.721 64.661,107.721 L68.359,107.657 C68.359,107.657 71.474,111.112 75.107,113.301 C79.843,116.156 101.186,120.353 100.995,122.839 C100.803,125.325 97.948,125.059 95.934,124.656 C94.312,124.331 86.461,121.801 86.461,121.801 L84.768,119.702 L82.191,119.9 C82.191,119.9 58.657,109.227 53.436,105.84 C48.215,102.453 46.753,100.39 46.753,100.39 C46.753,100.39 45.131,100.26 42.341,99.092 C38.96,97.677 36.21,95.178 36.21,95.178 C36.21,95.178 42.455,101.044 44.677,102.92 C49.673,107.137 63.169,114.417 69.527,116.61 C74.004,118.155 78.485,119.103 78.485,119.103 C78.485,119.103 78.416,121.152 85.098,122.839 C89.3,123.9 93.943,124.622 96.128,126.278 C98.314,127.933 98.71,130.949 98.71,130.949 L96.193,131.079 C96.193,131.079 82.114,125.564 76.404,123.747 C71.308,122.126 60.703,117.064 60.703,117.064 L57.394,117.194 C57.394,117.194 57.329,116.675 54.993,115.702 C51.158,114.104 46.31,111.964 46.31,111.964 L47.078,111.03 C47.078,111.03 45.455,110.641 42.728,109.153 C39.944,107.633 36.558,104.666 36.558,104.666 C36.558,104.666 37.848,103.528 37.735,103.504 C37.621,103.48 29.43,99.741 29.43,99.741 L31.117,98.378 L22.788,94.002 L23.785,91.89 L17.796,88.448 L20.022,87.413 C20.022,87.413 11.075,81.862 11.003,81.833 C10.931,81.805 12.531,80.062 12.531,80.062 L7.11,74.242 L8.931,73.323 C8.931,73.323 5.8,69.152 5.229,64.64 C4.657,60.127 6.072,59.125 6.072,59.125 z" fill="#C2C2C2" fill-opacity="0.295"/>
    <path d="M99.632,126.732 C99.632,126.732 102.841,125.371 104.888,121.801 C106.934,118.23 107.803,116.578 109.196,115.723 C111.254,114.46 113.776,114.015 115.463,114.729 C117.329,115.518 118.707,116.351 118.864,118.353 C119.082,121.153 117.235,123.557 115.204,123.488 C113.173,123.418 111.002,120.671 111.002,120.671 C111.002,120.671 104.044,124.721 105.342,132.636 C106.317,138.585 103.984,143.62 97.88,145.094 C95.999,145.548 92.102,145.22 91.911,141.785 C91.716,138.281 92.625,137.152 95.155,137.243 C96.972,137.308 98.139,139.019 98.139,139.019 C98.139,139.019 101.271,138.274 101.189,133.22 C101.124,129.197 99.632,126.732 99.632,126.732 z" fill="#C2C2C2" fill-opacity="0.295"/>
    <path d="M107.521,129.896 C107.223,131.858 108.054,133.905 109.105,134.518 C111.441,135.88 118.876,134.13 120.658,133.439 C123.898,132.182 124.093,130.365 123.898,128.678 C123.661,126.622 122.161,126.457 120.654,126.472 C119.147,126.487 118.062,128.83 118.062,128.83 C118.062,128.83 117.412,125.11 115.463,125.11 C113.514,125.11 111.794,127.305 111.794,127.305 C111.794,127.305 112.782,124.903 111.246,125.045 C107.742,125.369 107.521,129.896 107.521,129.896 z" fill="#C2C2C2" fill-opacity="0.295"/>
    <path d="M126.075,128.128 C125.65,131.339 126.818,129.133 126.558,132.506 C126.413,134.389 122.298,134.977 122.298,134.977 C122.298,134.977 123.278,136.516 126.187,136.645 C129.413,136.789 134.474,132.636 134.539,130.365 C134.582,128.831 132.917,124.721 129.478,124.85 C126.039,124.98 126.075,128.128 126.075,128.128 z" fill="#C2C2C2" fill-opacity="0.295"/>
    <path d="M144.024,58.672 C144.024,58.672 144.92,60.877 144.907,62.292 C144.88,65.363 143.624,66.999 143.557,68.37 C143.491,69.742 144.378,70.022 144.433,70.901 C144.538,72.562 143.849,73.626 143.849,73.626 C143.849,73.626 140.99,76.602 141.124,76.643 C141.259,76.684 141.222,78.979 141.221,78.979 L137.037,82.58 L137.134,84.721 C137.134,84.721 132.657,88.127 130.508,90.652 C128.359,93.177 127.058,97.277 127.058,97.277 L125.409,96.668 C125.409,96.668 119.032,101.363 117.156,102.604 C115.281,103.845 114.413,104.058 114.413,104.058 L114.282,105.733 L108.424,108.273 L109.786,109.441 L92.721,116.488 L87.11,114.502 C87.11,114.502 103.527,106.107 106.38,103.796 C109.233,101.485 111.927,98.054 111.927,98.054 C111.927,98.054 105.202,102.297 102.292,104.088 C98.497,106.424 98.787,105.619 95.382,107.786 C91.977,109.954 85.066,113.723 85.066,113.723 C85.066,113.723 83.509,113.431 81.289,112.336 C79.068,111.241 77.572,110.317 77.572,110.317 L82.925,106.91 C82.925,106.91 83.579,107.535 86.526,106.716 C89.473,105.897 95.165,100.224 95.165,100.224 L96.298,101.699 L108.947,90.889 L109.105,92.507 C109.105,92.507 111.91,91.177 113.971,89.879 C116.599,88.224 118.934,85.402 118.934,85.402 L121.757,85.305 L125.65,79.952 L128.472,79.757 L136.258,68.857 C136.258,68.857 136.757,69.517 138.107,68.954 C139.275,68.468 144.024,58.672 144.024,58.672 z M136.039,77.178 C136.039,77.178 130.706,82.815 128.764,84.721 C126.822,86.626 126.89,85.286 124.774,87.154 C121.465,90.073 118.232,95.45 118.232,95.45 C118.232,95.45 126.187,90.007 129.251,86.765 C132.315,83.522 136.039,77.178 136.039,77.178 z" fill="#C2C2C2" fill-opacity="0.295"/>
    <path d="M59.584,119.465 L63.283,120.633 C63.283,120.633 53.632,125.51 51.117,124.915 C48.603,124.32 48.003,122.774 48.003,122.774 C48.003,122.774 51.605,122.571 53.842,121.704 C56.08,120.836 59.584,119.465 59.584,119.465 z" fill="#C2C2C2" fill-opacity="0.295"/>
    <path d="M50.381,131.224 C50.381,131.224 53.409,131.044 57.151,129.879 C60.894,128.714 72.293,124.481 72.293,124.481 C72.293,124.481 68.279,122.019 65.619,122.579 C63.769,122.969 62.034,123.778 59.195,125.013 C56.356,126.247 52.959,126.096 51.409,127.64 C49.859,129.184 50.381,131.224 50.381,131.224 z" fill="#C2C2C2" fill-opacity="0.295"/>
    <path d="M49.272,126.77 C49.272,126.77 46.995,130.423 47.551,134.206 C48.003,137.275 49.146,139.165 50.631,139.124 C54.232,139.027 51.211,137.504 54.232,137.373 C56.47,137.275 57.249,139.416 57.259,141.486 C57.272,143.991 56.085,145.586 53.066,145.372 C50.047,145.158 46.773,142.98 45.198,140.274 C43.623,137.567 44.379,129.085 42.979,125.735 C41.58,122.385 37.687,120.73 37.687,120.73 C37.687,120.73 36.339,123.753 33.794,123.066 C31.249,122.379 30.375,120.037 31.361,117.519 C32.237,115.28 35.375,113.676 38.368,115.183 C41.361,116.689 42.071,119.246 43.664,121.588 C45.862,124.818 49.272,126.77 49.272,126.77 z" fill="#C2C2C2" fill-opacity="0.295"/>
    <path d="M35.733,127.319 C35.733,127.319 33.97,124.673 32.529,125.013 C30.874,125.402 30.485,129.197 30.485,129.197 C30.485,129.197 29.328,125.985 27.176,126.18 C25.035,126.375 24.441,129.021 26.182,131.526 C28.149,134.356 31.186,134.745 34.475,134.745 C38.076,134.745 40.252,134.121 41.047,132.946 C41.872,131.728 41.482,127.932 40.527,126.596 C39.348,124.946 38.365,123.804 37.784,125.402 C37.006,127.543 35.733,127.319 35.733,127.319 z" fill="#C2C2C2" fill-opacity="0.295"/>
    <path d="M27.047,134.635 C27.047,134.635 22.699,134.745 22.602,132.604 C22.513,130.659 23.548,131.623 23.283,128.711 C23.018,125.798 19.39,124.039 16.86,125.304 C14.375,126.547 14.096,130.35 16.013,132.45 C17.93,134.55 20.451,135.841 23.283,135.913 C26.115,135.984 27.047,134.635 27.047,134.635 z" fill="#C2C2C2" fill-opacity="0.295"/>
  </g>
  <g id="hawk_head">
    <path d="M79.126,4.609 L80.297,4.624 C90.055,5.076 104.628,15.654 107.093,19.547 C108.943,22.468 108.773,25.036 110.338,26.1 C111.96,27.203 118.097,31.77 119.291,35.053 C120.849,39.336 119.097,43.034 119.097,43.034 C119.097,43.034 117.576,41.023 113.452,41.023 C109.559,41.023 107.418,42.58 107.418,42.58 C107.418,42.58 106.8,45.865 110.727,49.068 C113.192,51.079 115.972,51.81 118.383,53.869 C120.794,55.929 121.432,59.272 121.432,59.272 L116.711,56.367 C116.711,56.367 119.311,59.661 121.432,61.915 C123.509,64.121 123.703,70.284 123.379,71.842 C122.659,75.295 119.551,76.708 119.551,76.708 C119.551,76.708 119.94,74.696 119.681,72.75 C119.412,70.734 117.927,69.604 117.927,69.604 C117.927,69.604 118.536,71.467 117.826,73.476 C117.116,75.485 115.516,76.467 115.516,76.467 C115.516,76.467 116.05,70.843 113.971,70.674 C111.892,70.505 111.728,75 110.578,77.942 C109.427,80.884 108.129,80.746 108.129,80.746 C108.129,80.746 108.14,74.75 107.483,73.204 C106.826,71.658 104.823,71.387 104.823,71.387 C104.823,71.387 104.693,76.318 103.72,78.719 C102.442,81.871 99.892,83.066 99.892,83.066 C99.892,83.066 101.254,73.658 98.075,73.593 C95.809,73.547 96.229,76.713 94.636,79.368 C93.079,81.963 90.678,81.639 90.678,81.639 C90.678,81.639 91.392,74.891 88.732,74.826 C86.877,74.781 87.08,76.379 86.774,77.831 C86.468,79.284 84.385,79.952 84.385,79.952 C84.385,79.952 84.014,76.933 82.763,75.735 C81.512,74.536 80.164,74.18 80.103,77.551 C80.041,80.922 81.53,82.417 81.53,82.417 C81.53,82.417 80.038,82.612 78.545,81.963 C75.886,80.807 75.507,72.347 75.507,72.347 C75.507,72.347 74.488,75.707 73.692,78.098 C73.095,79.887 70.305,79.433 70.305,79.433 C70.305,79.433 70.565,73.918 69.332,72.49 C68.463,71.484 66.415,70.02 63.687,72.685 C60.96,75.35 61.67,79.72 61.67,79.72 C61.67,79.72 61.028,80.321 59.34,77.876 C57.459,75.151 58.627,71.387 58.627,71.387 C58.627,71.387 57.668,70.549 55.188,72.361 C52.707,74.173 53.76,78.849 53.76,78.849 C53.76,78.849 51.247,77.896 50.516,76.643 C49.608,75.086 50.062,71.517 50.062,71.517 C50.062,71.517 49.607,70.705 47.532,73.334 C46.558,74.567 46.883,79.822 46.883,79.822 C46.883,79.822 45.391,79.976 44.417,78.914 C41.563,75.799 43.639,70.674 43.639,70.674 C43.639,70.674 42.918,70.067 41.303,71.258 C40.07,72.166 39.811,75.799 39.811,75.799 C39.811,75.799 38.042,75.298 37.864,73.074 C37.687,70.851 39.962,67.884 39.962,67.884 C39.962,67.884 38.389,68.206 36.177,70.09 C34.426,71.582 33.842,74.891 33.842,74.891 C33.842,74.891 33.128,75.021 32.544,73.723 C31.513,71.432 32.297,67.956 31.376,68.078 C30.403,68.208 30.727,71.517 30.727,71.517 C30.727,71.517 29.17,70.739 29.134,68.514 C29.107,66.853 28.742,66.822 30.403,63.472 C32.064,60.121 31.324,59.236 31.324,59.236 L29.559,62.563 C29.559,62.563 28.84,61.29 28.911,59.644 C29.105,55.102 34.977,50.937 33.582,49.717 C32.544,48.808 29.235,54.064 29.235,54.064 C29.235,54.064 28.132,53.999 29.04,50.95 C29.559,49.208 32.252,45.768 32.998,44.916 C34.361,43.358 37.215,40.958 35.983,40.114 C33.948,38.722 32.588,41.918 32.588,41.918 C32.588,41.918 31.58,41.907 31.435,39.257 C31.29,36.607 37.171,34.352 39.746,33.139 C43.12,31.55 41.783,29.463 41.783,29.463 L37.698,33.139 C37.698,33.139 37.612,32.513 38.054,30.642 C38.496,28.771 42.211,25.775 42.211,25.775 L39.421,27.203 C39.421,27.203 38.814,26.357 40.719,24.153 C42.049,22.615 46.33,21.192 46.104,20.39 C45.879,19.589 43.205,20.579 43.205,20.578 C43.205,20.579 43.12,19.547 46.104,17.665 C47.904,16.53 55.123,12.994 55.123,12.994 L52.982,12.929 C52.982,12.929 52.425,11.57 55.707,10.398 C59.34,9.101 63.949,9.291 64.07,9.244 C68.253,7.575 72.323,5.414 76.841,4.796 C77.598,4.692 78.365,4.671 79.126,4.609 z M79.393,21.868 C78.568,21.92 77.736,21.976 76.923,22.142 C76.923,22.142 79.201,22.25 81.27,23.699 C83.866,25.516 84.029,28.002 85.877,29.993 C87.564,31.809 89.398,32.174 91.262,32.588 C94.182,33.237 95.019,31.103 97.227,30.344 C99.762,29.474 102.816,29.127 102.816,29.127 L94.116,27.377 C94.116,27.377 94.116,27.676 92.56,28.565 C91.652,29.084 89.51,28.76 88.926,28.176 C88.11,27.359 87.989,24.364 87.988,24.364 C87.989,24.364 85.231,22.434 82.373,22.012 C80.681,21.827 81.672,21.902 79.393,21.868 z" fill="#C2C2C2" fill-opacity="0.295"/>
  </g>
</svg>
